{"title":"Nurse 2013 WEBRip 480p x264 AAC - VYTO [P2PDL]","uid":9592571,"size":309962183,"categoryP":"video","categoryS":"movies","magnet":"?xt=urn:btih:450483c6e78faefcb5980bc73e0dc2c0b7475076&amp;dn=Nurse+2013+WEBRip+480p+x264+AAC+-+VYTO+%5BP2PDL%5D&amp;tr=udp%3A%2F%2Ftracker.openbittorrent.com%3A80&amp;tr=udp%3A%2F%2Fopen.demonii.com%3A1337&amp;tr=udp%3A%2F%2Ftracker.coppersurfer.tk%3A6969&amp;tr=udp%3A%2F%2Fexodus.desync.com%3A6969","seeders":1,"leechers":0,"uploader":"ValidusVyto","files":-1,"time":1391940206,"description":"Nurse.2013.WEBRip.480p.x264.AAC-VYTO\n\n\nGenre: Thriller &lt;a href=&quot;\nhttp://www.imdb.com/title/tt1913166/&quot; rel=&quot;nofollow&quot; target=&quot;_NEW&quot;&gt;\nhttp://www.imdb.com/title/tt1913166/&lt;/a&gt;\n\n\nFormat                                   : MPEG-4\nFile size                                : 291 MiB\nDuration                                 : 1h 23mn\nOverall bit rate mode                    : Variable\nOverall bit rate                         : 485 Kbps\n\nVideo\nFormat                                   : AVC\nBit rate                                 : 440 Kbps\nWidth                                    : 720 pixels\nHeight                                   : 304 pixels\nDisplay aspect ratio                     : 2.40:1\nFrame rate mode                          : Variable\nFrame rate                               : 23.976 fps\nBit depth                                : 8 bits\nStream size                              : 264 MiB (91%)\nWriting library                          : x264 core 140 r2377\n\nAudio\nFormat                                   : AAC\nBit rate                                 : 40.0 Kbps\nChannel(s)                               : 2 channels\nChannel positions                        : Front: L R\nSampling rate                            : 48.0 KHz\nStream size                              : 24.0 MiB (8%)\nLanguage                                 : English\n\n\nSubtitle                                 : Yes (English)\n &lt;a href=&quot;\nhttp://ultraimg.com/images/Z6Bvp.png&quot; rel=&quot;nofollow&quot; target=&quot;_NEW&quot;&gt;\nhttp://ultraimg.com/images/Z6Bvp.png&lt;/a&gt; &lt;a href=&quot;\nhttp://ultraimg.com/images/ewnBP.png&quot; rel=&quot;nofollow&quot; target=&quot;_NEW&quot;&gt;\nhttp://ultraimg.com/images/ewnBP.png&lt;/a&gt; &lt;a href=&quot;\nhttp://ultraimg.com/images/qx1yu.png&quot; rel=&quot;nofollow&quot; target=&quot;_NEW&quot;&gt;\nhttp://ultraimg.com/images/qx1yu.png&lt;/a&gt; &lt;a href=&quot;\nhttp://ultraimg.com/images/rIGT1.png&quot; rel=&quot;nofollow&quot; target=&quot;_NEW&quot;&gt;\nhttp://ultraimg.com/images/rIGT1.png&lt;/a&gt; &lt;a href=&quot;\nhttp://ultraimg.com/images/Ycxs1.png&quot; rel=&quot;nofollow&quot; target=&quot;_NEW&quot;&gt;\nhttp://ultraimg.com/images/Ycxs1.png&lt;/a&gt; &lt;a href=&quot;\nhttp://ultraimg.com/images/NTq9K.png&quot; rel=&quot;nofollow&quot; target=&quot;_NEW&quot;&gt;\nhttp://ultraimg.com/images/NTq9K.png&lt;/a&gt;\n\n----------------------------------------------------------------------------------------------------\n\n\nEncoded using revolutionary 10bit encoding, which enables us to provide you more crispier \nand sharper images at small sizes, just make sure you follow our instructions without a fault.\nRecommend to you to use latest version of VLC player. Install K-Lite Codec Pack or shark007 codecs\nin case of any kind of problem in playback (For non-VLC Media Player users). Alternatively, install\nCore AVC codecs, the fastest decoder that there is coupled with Community Center Codec Pack and play\non Windows Media Player Classic. Check sample to be sure.\nEnjoy!\n\nEncoder Notes:Looking For Early Access To Anything You Can Provide DVDScr, R5, DVDR, BluRay, Direct\nAudio, Music Releases and Seedboxes. We require dedicated servers, so as to do more \nand fast releases of movies.","torrent":{"xt":"urn:btih:450483c6e78faefcb5980bc73e0dc2c0b7475076","amp;dn":"Nurse+2013+WEBRip+480p+x264+AAC+-+VYTO+%5BP2PDL%5D","amp;tr":["udp%3A%2F%2Ftracker.openbittorrent.com%3A80","udp%3A%2F%2Fopen.demonii.com%3A1337","udp%3A%2F%2Ftracker.coppersurfer.tk%3A6969","udp%3A%2F%2Fexodus.desync.com%3A6969"],"infoHash":"450483c6e78faefcb5980bc73e0dc2c0b7475076","infoHashBuffer":{"type":"Buffer","data":[69,4,131,198,231,143,174,252,181,152,11,199,62,13,194,192,183,71,80,118]},"announce":[],"urlList":[]}}